<svg width="18" height="25" viewBox="0 0 18 25" fill="none" xmlns="http://www.w3.org/2000/svg">
<path fill-rule="evenodd" clip-rule="evenodd" d="M7.44626 25H17.3774C17.7221 25 18 24.7188 18 24.3729V5.49494C18 5.32902 17.9333 5.16873 17.8166 5.05062L13.008 0.185602C12.8913 0.0674916 12.7329 0 12.5689 0H6.82644H0.619827C0.277949 0 0 0.281215 0 0.627109V24.3729C0 24.7188 0.277949 25 0.619827 25H6.20661H7.44626ZM1.23965 23.7458V1.25703H11.9463V5.49494C11.9463 5.84364 12.2242 6.12205 12.5689 6.12205H16.7576V23.7458H1.23965ZM13.1887 4.86783V2.14567L15.8792 4.86783H13.1887Z" fill="white" fill-opacity="0.5"/>
<path d="M14.7476 7.67444H3.25159V8.93147H14.7476V7.67444Z" fill="white" />
<path d="M14.7476 10.8156H3.25159V12.0726H14.7476V10.8156Z" fill="white" />
<path d="M14.7476 13.9539H3.25159V15.2109H14.7476V13.9539Z" fill="white" />
<path d="M14.7476 17.095H3.25159V18.352H14.7476V17.095Z" fill="white" />
</svg>
